<mxfile host="app.diagrams.net" agent="Mozilla/5.0 (Windows NT 10.0; Win64; x64) AppleWebKit/537.36 (KHTML, like Gecko) Chrome/141.0.0.0 Safari/537.36" version="28.2.7">
  <diagram id="ec2-ebs-detailed" name="EC2-EBS-Detailed">
    <mxGraphModel dx="1042" dy="527" grid="1" gridSize="10" guides="1" tooltips="1" connect="1" arrows="1" fold="1" page="1" pageScale="1" pageWidth="827" pageHeight="1169" math="0" shadow="0">
      <root>
        <mxCell id="0" />
        <mxCell id="1" parent="0" />
        <mxCell id="e1" value="SSH / Console" style="edgeStyle=orthogonalEdgeStyle;rounded=0;html=1;flowAnimation=1;" parent="1" target="yv9Nn-07naLkfaixD703-3" edge="1">
          <mxGeometry relative="1" as="geometry">
            <mxPoint x="100" y="60" as="sourcePoint" />
            <mxPoint x="210" y="140" as="targetPoint" />
            <Array as="points">
              <mxPoint x="100" y="80" />
              <mxPoint x="210" y="80" />
              <mxPoint x="210" y="120" />
              <mxPoint x="153" y="120" />
            </Array>
          </mxGeometry>
        </mxCell>
        <mxCell id="e2" value="Attach Volume (attach)" style="edgeStyle=orthogonalEdgeStyle;rounded=0;html=1;flowAnimation=1;" parent="1" source="yv9Nn-07naLkfaixD703-3" edge="1">
          <mxGeometry relative="1" as="geometry">
            <mxPoint x="400" y="150" as="sourcePoint" />
            <mxPoint x="460" y="155" as="targetPoint" />
            <Array as="points">
              <mxPoint x="333" y="190" />
              <mxPoint x="333" y="155" />
            </Array>
          </mxGeometry>
        </mxCell>
        <mxCell id="e4" value="Snapshot Storage" style="edgeStyle=orthogonalEdgeStyle;rounded=0;html=1;exitX=0.96;exitY=0.5;exitDx=0;exitDy=0;exitPerimeter=0;flowAnimation=1;" parent="1" source="yv9Nn-07naLkfaixD703-12" edge="1">
          <mxGeometry relative="1" as="geometry">
            <mxPoint x="780" y="115" as="sourcePoint" />
            <mxPoint x="940" y="191.5" as="targetPoint" />
          </mxGeometry>
        </mxCell>
        <mxCell id="yv9Nn-07naLkfaixD703-2" value="User" style="sketch=0;outlineConnect=0;fontColor=#232F3E;gradientColor=none;strokeColor=#232F3E;fillColor=#ffffff;dashed=0;verticalLabelPosition=bottom;verticalAlign=top;align=center;html=1;fontSize=12;fontStyle=0;aspect=fixed;shape=mxgraph.aws4.resourceIcon;resIcon=mxgraph.aws4.user;" vertex="1" parent="1">
          <mxGeometry x="40" y="36.5" width="60" height="60" as="geometry" />
        </mxCell>
        <mxCell id="yv9Nn-07naLkfaixD703-15" value="Create AMI from Instance" style="edgeStyle=orthogonalEdgeStyle;rounded=0;orthogonalLoop=1;jettySize=auto;html=1;flowAnimation=1;" edge="1" parent="1" source="yv9Nn-07naLkfaixD703-3" target="yv9Nn-07naLkfaixD703-6">
          <mxGeometry relative="1" as="geometry" />
        </mxCell>
        <mxCell id="yv9Nn-07naLkfaixD703-3" value="EC2&amp;nbsp;" style="verticalLabelPosition=bottom;html=1;verticalAlign=top;strokeWidth=1;align=center;outlineConnect=0;dashed=0;outlineConnect=0;shape=mxgraph.aws3d.application_server;fillColor=#ECECEC;strokeColor=#5E5E5E;aspect=fixed;strokeColor2=#292929;" vertex="1" parent="1">
          <mxGeometry x="80" y="150" width="126.14" height="127.16" as="geometry" />
        </mxCell>
        <mxCell id="yv9Nn-07naLkfaixD703-7" value="Launch Instance from AMI" style="edgeStyle=orthogonalEdgeStyle;rounded=0;orthogonalLoop=1;jettySize=auto;html=1;flowAnimation=1;" edge="1" parent="1" source="yv9Nn-07naLkfaixD703-6">
          <mxGeometry relative="1" as="geometry">
            <mxPoint x="570" y="292" as="targetPoint" />
          </mxGeometry>
        </mxCell>
        <mxCell id="yv9Nn-07naLkfaixD703-6" value="AMI" style="sketch=0;outlineConnect=0;fontColor=#232F3E;gradientColor=none;strokeColor=#232F3E;fillColor=#ffffff;dashed=0;verticalLabelPosition=bottom;verticalAlign=top;align=center;html=1;fontSize=12;fontStyle=0;aspect=fixed;shape=mxgraph.aws4.resourceIcon;resIcon=mxgraph.aws4.ami;" vertex="1" parent="1">
          <mxGeometry x="350" y="290" width="70" height="70" as="geometry" />
        </mxCell>
        <mxCell id="yv9Nn-07naLkfaixD703-9" value="EC2 Auto Scaling&lt;div&gt;&lt;br&gt;&lt;/div&gt;" style="sketch=0;points=[[0,0,0],[0.25,0,0],[0.5,0,0],[0.75,0,0],[1,0,0],[0,1,0],[0.25,1,0],[0.5,1,0],[0.75,1,0],[1,1,0],[0,0.25,0],[0,0.5,0],[0,0.75,0],[1,0.25,0],[1,0.5,0],[1,0.75,0]];outlineConnect=0;fontColor=#232F3E;fillColor=#ED7100;strokeColor=#ffffff;dashed=0;verticalLabelPosition=bottom;verticalAlign=top;align=center;html=1;fontSize=12;fontStyle=0;aspect=fixed;shape=mxgraph.aws4.resourceIcon;resIcon=mxgraph.aws4.auto_scaling2;" vertex="1" parent="1">
          <mxGeometry x="580" y="230" width="78" height="78" as="geometry" />
        </mxCell>
        <mxCell id="yv9Nn-07naLkfaixD703-13" value="Create Snapshot" style="edgeStyle=orthogonalEdgeStyle;rounded=0;orthogonalLoop=1;jettySize=auto;html=1;flowAnimation=1;" edge="1" parent="1" source="yv9Nn-07naLkfaixD703-10" target="yv9Nn-07naLkfaixD703-12">
          <mxGeometry relative="1" as="geometry" />
        </mxCell>
        <mxCell id="yv9Nn-07naLkfaixD703-10" value="EBS Volume" style="outlineConnect=0;dashed=0;verticalLabelPosition=bottom;verticalAlign=top;align=center;html=1;shape=mxgraph.aws3.volume;fillColor=#E05243;gradientColor=none;" vertex="1" parent="1">
          <mxGeometry x="460" y="96.5" width="82.5" height="95" as="geometry" />
        </mxCell>
        <mxCell id="yv9Nn-07naLkfaixD703-12" value="Snapshot&lt;div&gt;&lt;br&gt;&lt;/div&gt;" style="outlineConnect=0;dashed=0;verticalLabelPosition=bottom;verticalAlign=top;align=center;html=1;shape=mxgraph.aws3.snapshot;fillColor=#E05243;gradientColor=none;" vertex="1" parent="1">
          <mxGeometry x="658" y="97.25" width="80" height="93.5" as="geometry" />
        </mxCell>
        <mxCell id="yv9Nn-07naLkfaixD703-14" value="Storage Snapshot&lt;div&gt;&lt;br&gt;&lt;/div&gt;" style="sketch=0;pointerEvents=1;shadow=0;dashed=0;html=1;strokeColor=none;fillColor=#005F4B;labelPosition=center;verticalLabelPosition=bottom;verticalAlign=top;align=center;outlineConnect=0;shape=mxgraph.veeam2.storage_snapshot;" vertex="1" parent="1">
          <mxGeometry x="890" y="200" width="100" height="40" as="geometry" />
        </mxCell>
      </root>
    </mxGraphModel>
  </diagram>
</mxfile>
